<svg id="Layer_1" data-name="Layer 1" xmlns="http://www.w3.org/2000/svg" viewBox="0 0 324.39 226.18">
  <defs>
    <style>
      .cls-1 {
        fill: #7e55ff;
      }
    </style>
  </defs>
  <title>crown</title>
  <g id="Layer_2" data-name="Layer 2">
    <g id="Layer_1-2" data-name="Layer 1-2">
      <g>
        <circle class="cls-1" cx="15.64" cy="90.93" r="15.63" transform="translate(-33.5 12.84) rotate(-22.42)"/>
        <circle class="cls-1" cx="244.3" cy="41.51" r="15.63" transform="translate(2.64 96.31) rotate(-22.42)"/>
        <circle class="cls-1" cx="162.32" cy="15.62" r="15.63" transform="translate(6.31 63.09) rotate(-22.42)"/>
        <circle class="cls-1" cx="79.87" cy="43.88" r="15.63" transform="translate(-10.7 33.78) rotate(-22.42)"/>
        <circle class="cls-1" cx="308.76" cy="87.92" r="15.63" transform="translate(-10.2 124.4) rotate(-22.42)"/>
        <path class="cls-1" d="M298.19,97.73s-75.79,125-54.19-42l-7.8-.79S180,242.28,165,22.1l-6.22-.59C150.51,242,88.69,56.44,88.69,56.44l-7.77,1C107.52,223.77,28,101.1,28,101.1l-7.35,4.67c25.7,38.49,30.58,83.39,30.58,83.39,113,84.84,226.36-2.72,226.36-2.72s3.54-45,28.07-84.27ZM77.51,176.14C146.28,144.5,246,172.09,246,172.09,161.14,220.19,77.51,176.14,77.51,176.14Z"/>
      </g>
    </g>
  </g>
</svg>
